<svg xmlns="http://www.w3.org/2000/svg" width="110" height="77" fill="none"><path fill="#5061FC" d="M75.5 38.2 99 31.5V62a5.5 5.5 0 0 1-4.2 5.3l-37.2 9.3c-1.7.4-3.5.4-5.3 0l-37.1-9.3A5.5 5.5 0 0 1 11 62V31.5l23.5 6.7a8.4 8.4 0 0 0 9.4-3.7L55 16.2l11 18.3a8.3 8.3 0 0 0 9.5 3.7Z" opacity=".6"/><path fill="#5061FC" d="M109.7 19.2 101 1.6a2.8 2.8 0 0 0-3-1.6L55 5.5l15.8 26.1a2.8 2.8 0 0 0 3.1 1.3l34-9.7a2.8 2.8 0 0 0 1.8-4ZM9.2 1.6.3 19.2a2.8 2.8 0 0 0 1.7 4l34 9.7a2.8 2.8 0 0 0 3.2-1.3L55 5.6 12 0a2.8 2.8 0 0 0-2.8 1.6Z"/><g stroke="#222" stroke-linecap="round" stroke-linejoin="round" stroke-width="1.5" opacity=".2"><path d="M83.6 58.6v-1.3a2 2 0 0 0-.8-1.7 2 2 0 0 0-1.8-.3l-5.2 1.5c-.7.2-1.3.6-1.8 1.3-.5.6-.8 1.4-.8 2v1.4M78.4 53.3c1.4-.4 2.6-2 2.6-3.4 0-1.5-1.2-2.4-2.6-2-1.4.4-2.6 2-2.6 3.5s1.2 2.3 2.6 2Z"/></g><mask id="a" width="89" height="61" x="10" y="16" maskUnits="userSpaceOnUse" style="mask-type:alpha"><path fill="#5061FC" d="M75.5 38.2 99 31.5V62a5.5 5.5 0 0 1-4.2 5.3l-37.2 9.3c-1.7.4-3.5.4-5.3 0l-37.1-9.3A5.5 5.5 0 0 1 11 62V31.5l23.5 6.7a8.4 8.4 0 0 0 9.4-3.7L55 16.2l11 18.3a8.3 8.3 0 0 0 9.5 3.7Z" opacity=".6"/></mask><g mask="url(#a)"><path fill="#5061FC" d="M54 15.1h1.6v63.4H54V15Z" opacity=".4"/></g></svg>