<svg xmlns="http://www.w3.org/2000/svg" width="58" height="58" fill="none"><path fill="#FC5050" d="M34.4 9a14.5 14.5 0 1 0 0 29 14.5 14.5 0 0 0 0-29Zm0-9a23.6 23.6 0 1 1 0 47.1 23.6 23.6 0 0 1 0-47.1Z"/><path fill="#FC5050" d="M.8 50.1 12 39a2.7 2.7 0 0 1 2-.8h1.8l4 4V44a2.7 2.7 0 0 1-.8 2L7.8 57.1a2.7 2.7 0 0 1-3.8 0L.8 54a2.7 2.7 0 0 1 0-3.9Z" opacity=".6"/><path fill="#FC5050" d="M31.9 27.1v-4.5h2.4c1 0 1.6-.2 2-.7.5-.5.7-1.1.7-1.8 0-.5 0-1-.3-1.3a2 2 0 0 0-.8-.9c-.4-.2-.8-.3-1.4-.3a2.5 2.5 0 0 0-2.2 1.2c-.2.4-.3.8-.3 1.3h-4c0-1.1.2-2.1.7-3 .6-1 1.3-1.7 2.3-2.3 1-.5 2.2-.8 3.6-.8s2.5.2 3.4.7a5.3 5.3 0 0 1 3 5v.3c0 1.2-.3 2.1-.8 3-.5.8-1.3 1.4-2.3 2-1 .4-2.2.6-3.6.7l1.8-1.4V27h-4.2Z"/><path fill="#FC5050" d="M31.6 29.3v4.1h4.7v-4.1h-4.7Z" opacity=".6"/></svg>